<svg xmlns="http://www.w3.org/2000/svg" width="250" height="250" fill="none"><g clip-path="url(#a)"><path d="M63.546 197.522c-8.493-6.771-14.064-15.459-15.737-26.379-.177-1.156-.387-2.338-.319-3.493.1-1.699-.768-2.481-2.137-3.246-12.11-6.767-18.877-17.263-20.156-30.904-1.289-13.749 3.777-25.216 14.74-33.692 2.504-1.936 3.301-3.558 3.183-6.715-.631-16.849 10.813-31.969 26.817-35.936 1.616-.401 3.257-.793 4.93-.614 1.61.173 2.596-.476 3.525-1.769 4.282-5.958 9.995-9.859 17.24-11.239 11.295-2.151 20.627 1.509 28.274 9.887.287.315.556.646.8.929.61-.015.791-.462 1.054-.782 11.499-13.968 31.947-14.307 43.857-.545 1.989 2.298 3.838 3.361 6.964 3.713 8.391.947 15.455 4.954 21.004 11.353 6.541 7.541 9.975 16.219 8.978 26.356-.189 1.915.24 3.245 2.02 4.466 9.091 6.237 14.359 15.049 15.993 25.837 2.416 15.948-5.689 32.379-19.47 39.391-2.517 1.281-2.319 3.238-2.548 5.168-1.992 16.789-11.394 28.104-26.615 34.271-14.658 5.938-28.92 4.291-41.939-5.135-3.071-2.224-5.556-5.067-7.741-8.164-.275-.389-.41-.917-1.241-1.146-8.486 12.323-20.679 17.541-35.593 17.542-9.714-.33-18.425-3.211-25.883-9.156z" fill="#155dfc"/><g clip-path="url(#b)"><path d="M190.894 175.763c-3.08 7.611-8.119 13.483-15.429 17.319-12.562 6.591-26.929 5.463-37.16-3.075-5.36-4.473-9.015-9.91-8.885-17.31.031-1.746.626-2.308 2.257-2.585 8.804-1.493 15.075-6.374 18.854-14.454.653-1.396.728-2.903.286-4.342-.585-1.904-2.055-2.952-3.992-3.083s-3.508.747-4.419 2.485c-1.007 1.92-1.972 3.853-3.565 5.372-2.55 2.431-5.508 4.008-8.935 4.453-.494-.623-.392-1.135-.392-1.617l.023-90.954c.003-2.64.856-5.092 2.379-7.278 5.743-8.246 18.784-10.852 28.11-4.183a11.9 11.9 0 0 1 3.787 4.461c-.504.364-.859.599-1.192.864-1.746 1.387-2.512 3.222-2.127 5.394.393 2.22 1.907 3.589 4.006 4.182 2.605.736 4.561-.477 6.131-2.436 1.774-2.212 3.995-2.807 6.753-2.339 6.544 1.11 11.227 4.92 14.826 10.184 3.383 4.947 5.493 10.327 4.572 16.526-.153 1.028-.559 1.368-1.539 1.349-1.852-.037-3.708-.071-5.556.018-2.97.142-5.163 2.271-5.1 4.83.063 2.573 2.347 4.596 5.271 4.652l3.52.018c4.556.106 8.529 1.698 12.014 4.629 11.398 9.586 12.223 27.26 4.197 38.655-6.768 9.609-21.947 15.079-32.866 7.688-1.773-1.201-4.418-.618-5.78.884-1.558 1.718-1.742 4.001-.423 5.961 1.061 1.577 2.56 2.651 4.244 3.487 5.196 2.578 10.736 3.059 16.415 2.699.415-.027.853-.251 1.321.224-.073 2.386-.614 4.756-1.606 7.322" fill="#fff"/><circle cx="13.6" cy="13.6" transform="matrix(-1 0 0 1 172.2 106.25)" fill="#155dfc" r="13.6"/><circle cx="5" cy="5" transform="matrix(-1 0 0 1 166.5 112.45)" fill="#fff" r="5"/></g><g clip-path="url(#c)"><path d="M60.206 175.763c3.08 7.611 8.118 13.483 15.428 17.319 12.562 6.591 26.929 5.463 37.16-3.075 5.36-4.473 9.015-9.91 8.885-17.31-.031-1.746-.626-2.308-2.257-2.585-8.804-1.493-15.075-6.374-18.854-14.454-.653-1.396-.728-2.903-.286-4.342.586-1.904 2.055-2.952 3.992-3.083s3.508.747 4.42 2.485c1.006 1.92 1.971 3.853 3.564 5.372 2.55 2.431 5.508 4.008 8.935 4.453.494-.623.392-1.135.392-1.617l-.023-90.954c-.003-2.64-.856-5.092-2.379-7.278-5.743-8.246-18.784-10.852-28.11-4.183a11.9 11.9 0 0 0-3.787 4.461c.504.364.859.599 1.192.864 1.746 1.387 2.513 3.222 2.127 5.394-.393 2.22-1.907 3.589-4.007 4.182-2.605.736-4.56-.477-6.131-2.436-1.773-2.212-3.995-2.807-6.752-2.339-6.544 1.11-11.227 4.92-14.826 10.184-3.383 4.947-5.492 10.327-4.572 16.526.153 1.028.559 1.368 1.539 1.349 1.852-.037 3.708-.071 5.556.018 2.97.142 5.163 2.271 5.1 4.83-.063 2.573-2.347 4.596-5.272 4.652-1.173.022-2.347-.009-3.519.018-4.556.106-8.529 1.698-12.014 4.629-11.398 9.586-12.223 27.26-4.197 38.655 6.768 9.609 21.947 15.079 32.865 7.688 1.774-1.201 4.419-.618 5.78.884 1.558 1.718 1.742 4.001.424 5.961-1.061 1.577-2.56 2.651-4.245 3.487-5.196 2.578-10.736 3.059-16.415 2.699-.415-.027-.852-.251-1.321.224.073 2.386.614 4.756 1.607 7.322z" fill="#fff"/><circle cx="92.5" cy="119.85" r="13.6" fill="#155dfc"/><circle cx="89.6" cy="117.45" r="5" fill="#fff"/></g></g><defs><clipPath id="a"><path fill="#fff" d="M25 42.85h200v164.3H25z"/></clipPath><clipPath id="b"><path fill="#fff" d="M214.9 52.65h-85.5v144.7h85.5z"/></clipPath><clipPath id="c"><path fill="#fff" d="M36.2 52.65h85.5v144.7H36.2z"/></clipPath></defs></svg>
