<svg width="1024" height="1024" viewBox="0 0 1024 1024" xmlns="http://www.w3.org/2000/svg"><title>Logo Copy 2</title><g fill="none" fill-rule="evenodd"><path d="M0 512.002v512.002l511.75-.251 511.748-.251.251-511.751L1024 0H0z"/><path d="M331.882 4.627C259.154 16.853 193.98 67.272 168.876 130.725c-6.31 15.95-12.526 40.912-14.05 56.416l-1.222 12.423-12.572 3.9C87.59 220.045 39.77 264.927 17.725 319.19 7.047 345.48 3.087 362.402 1.822 387.16c-1.96 38.368 6.185 76.855 21.97 103.796l6.75 11.526-6.704 11.475c-29.582 50.622-31.893 131.42-5.469 191.171 9.354 21.147 21.45 38.88 38.95 57.09 17.322 18.027 31.46 29.09 47.495 37.165 11.159 5.62 38.625 14.893 44.11 14.893 2.18 0 3.167 3.786 4.819 18.465 5.663 50.333 22.96 85.732 59.575 121.928 47.22 46.682 106.142 69.667 169.52 66.133 34.785-1.939 58.61-10.977 76.168-28.895 13.63-13.91 21.762-28.324 26.559-47.081 3.225-12.609 3.465-19.67 3.47-101.441l.004-87.889 21.164-23.248c11.64-12.788 21.777-23.249 22.524-23.249 1.839 0 3.669 77.886 3.674 156.318.004 71.69 1.064 80.29 12.553 101.845 7.129 13.374 25.608 30.674 40.705 38.107 34.564 17.016 92.624 18.884 136.192 4.386 77.556-25.808 139.29-102.032 143.489-177.165l.894-16.002 14.927-3.684c64.348-15.887 120.738-80.205 134.659-153.595 5.738-30.245 4.951-72.148-1.851-98.62-3.408-13.261-15.797-39.677-23.161-49.38l-5.692-7.5 6.245-8.18c23.57-30.877 33.948-82.3 25.998-128.809-13.223-77.353-65.6-139.298-137.726-162.885l-11.59-3.79-1.11-14.443c-5.72-74.425-63.763-142.956-145.448-171.729-28.076-9.889-45.9-12.53-77.663-11.501-42.6 1.377-67.79 10.056-87.621 30.181-13.556 13.756-21.407 29.065-23.872 46.541-1.145 8.13-1.717 46.58-1.498 100.58l.354 87.42-12.987 13.22c-13.71 13.951-28.892 26.88-31.571 26.88-.942 0-1.609-45.134-1.626-110.102-.034-120.395-.299-124.132-10.175-143.654-10.368-20.493-27.586-35.408-49.342-42.737-24.74-8.334-68.104-11.033-97.602-6.074" fill="#171717"/><path d="M665.277 182.274C647.06 198.458 525.398 317.085 371.91 468.325c-62.032 61.124-89.914 89.74-89.897 92.261.068 9.163-1.31 8.99 63.517 8.043 97.479-1.42 101.737-1.333 107.175 2.234 3.532 2.316 4.742 4.557 4.742 8.773 0 3.362-8.627 25.617-21.24 54.791-87.36 202.056-91.184 211.43-86.271 211.43.7 0 22.243-20.725 47.874-46.058C511.507 687.426 617.164 584.106 648.7 554.462c43.961-41.326 83.96-81.339 90.934-90.966 4.625-6.383 5.17-8.145 3.506-11.309-1.085-2.061-2.841-4.328-3.903-5.037s-35.152-1.3-75.757-1.316l-73.825-.026-3.614-3.948c-7.127-7.787-6.743-9.616 10.664-50.744 9.122-21.55 21.412-51.276 27.31-66.06 5.9-14.785 18.107-44.394 27.127-65.799 35.37-83.923 36.684-87.397 34.029-90.051-2.081-2.081-4.996-.165-19.894 13.068" fill="#fff"/></g></svg>
