<?xml version="1.0" standalone="no"?>
<!DOCTYPE svg PUBLIC "-//W3C//DTD SVG 20010904//EN"
 "http://www.w3.org/TR/2001/REC-SVG-20010904/DTD/svg10.dtd">
<svg version="1.0" xmlns="http://www.w3.org/2000/svg"
 width="700.000000pt" height="700.000000pt" viewBox="0 0 700.000000 700.000000"
 preserveAspectRatio="xMidYMid meet">
<metadata>
Created by potrace 1.14, written by Peter Selinger 2001-2017
</metadata>
<g transform="translate(0.000000,700.000000) scale(0.100000,-0.100000)"
fill="#000000" stroke="none">
<path d="M0 3500 l0 -3500 3500 0 3500 0 0 3500 0 3500 -3500 0 -3500 0 0
-3500z m3678 1756 c15 -8 415 -404 890 -880 653 -654 863 -870 860 -885 -3
-20 -1703 -1732 -1738 -1751 -29 -16 -2073 -13 -2088 2 -9 9 -12 413 -12 1754
0 1571 2 1744 16 1758 14 14 121 16 1030 16 858 0 1019 -2 1042 -14z"/>
<path d="M1630 3500 l0 -1730 1023 0 1022 0 858 858 c471 471 857 860 857 863
0 3 -388 396 -863 872 l-862 867 -1018 0 -1017 0 0 -1730z m1160 1044 c0 -315
4 -504 10 -502 5 2 141 134 302 293 161 160 357 353 436 430 l143 139 322
-319 c747 -740 1087 -1081 1087 -1090 0 -13 -762 -775 -775 -775 -6 0 -150
-139 -320 -310 -170 -170 -313 -310 -317 -310 -4 0 -202 192 -439 428 -237
235 -435 429 -440 430 -5 2 -9 -201 -9 -507 l0 -511 -490 0 -490 0 0 1555 0
1555 490 0 490 0 0 -506z"/>
<path d="M3927 3863 l-368 -367 368 -368 c202 -202 371 -368 375 -368 10 0 9
1381 0 1432 l-7 38 -368 -367z"/>
</g>
</svg>
